<svg id="visual" viewBox="0 0 900 600" width="900" height="600" xmlns="http://www.w3.org/2000/svg" xmlns:xlink="http://www.w3.org/1999/xlink" version="1.1"><rect x="0" y="0" width="900" height="600" fill="#8a9ca5"></rect><path d="M0 499L37.5 493.2C75 487.3 150 475.7 225 470.5C300 465.3 375 466.7 450 480.7C525 494.7 600 521.3 675 521.7C750 522 825 496 862.5 483L900 470L900 601L862.5 601C825 601 750 601 675 601C600 601 525 601 450 601C375 601 300 601 225 601C150 601 75 601 37.5 601L0 601Z" fill="#ffffff" stroke-linecap="round" stroke-linejoin="miter"></path></svg>